<svg xmlns="http://www.w3.org/2000/svg" viewBox="0 0 800 500" preserveAspectRatio="xMidYMid slice">
  <defs>
    <linearGradient id="h-bg" x1="0" y1="0" x2="1" y2="1">
      <stop offset="0%" stop-color="#0F1120"/>
      <stop offset="100%" stop-color="#1D1935"/>
    </linearGradient>
    <linearGradient id="h-house" x1="0" y1="0" x2="0" y2="1">
      <stop offset="0%" stop-color="#7C5CFF"/>
      <stop offset="100%" stop-color="#5B3FD4"/>
    </linearGradient>
  </defs>
  <rect width="800" height="500" fill="url(#h-bg)"/>
  <g opacity="0.06" stroke="#fff" stroke-width="1">
    <path d="M0 0 L800 500 M800 0 L0 500" />
  </g>
  <g transform="translate(280,140)">
    <path d="M120 0 L240 100 L240 240 L0 240 L0 100 Z" fill="url(#h-house)"/>
    <path d="M120 0 L240 100 L240 240 L0 240 L0 100 Z" fill="none" stroke="#A78BFA" stroke-width="2"/>
    <rect x="90" y="140" width="60" height="100" fill="#0E1220"/>
    <circle cx="140" cy="190" r="3" fill="#A78BFA"/>
    <rect x="30" y="130" width="40" height="40" fill="#A78BFA" opacity="0.4"/>
    <rect x="170" y="130" width="40" height="40" fill="#A78BFA" opacity="0.4"/>
    <line x1="50" y1="130" x2="50" y2="170" stroke="#0E1220"/>
    <line x1="30" y1="150" x2="70" y2="150" stroke="#0E1220"/>
    <line x1="190" y1="130" x2="190" y2="170" stroke="#0E1220"/>
    <line x1="170" y1="150" x2="210" y2="150" stroke="#0E1220"/>
    <path d="M-15 100 L120 -5 L255 100" fill="none" stroke="#A78BFA" stroke-width="3" stroke-linejoin="round"/>
  </g>
  <g transform="translate(90,180)" fill="#A78BFA">
    <circle cx="30" cy="30" r="30" fill="none" stroke="#7C5CFF" stroke-width="2"/>
    <g transform="translate(15,15)" fill="#A78BFA">
      <path d="M8 4 L14 4 L14 12 L20 18 L18 22 L10 16 L2 22 L0 18 L6 12 Z"/>
      <rect x="4" y="20" width="16" height="6" rx="1"/>
    </g>
    <text x="30" y="85" text-anchor="middle" font-family="monospace" font-size="10" fill="#fff" opacity="0.7">CLEAN</text>
  </g>
  <g transform="translate(90,300)">
    <circle cx="30" cy="30" r="30" fill="none" stroke="#7C5CFF" stroke-width="2"/>
    <g transform="translate(10,10)" fill="#A78BFA">
      <rect x="5" y="18" width="30" height="6" rx="2" transform="rotate(-45 20 21)"/>
      <circle cx="8" cy="34" r="5" fill="none" stroke="#A78BFA" stroke-width="2"/>
      <circle cx="32" cy="8" r="5" fill="none" stroke="#A78BFA" stroke-width="2"/>
    </g>
    <text x="30" y="85" text-anchor="middle" font-family="monospace" font-size="10" fill="#fff" opacity="0.7">REPAIR</text>
  </g>
  <g transform="translate(650,180)">
    <circle cx="30" cy="30" r="30" fill="none" stroke="#7C5CFF" stroke-width="2"/>
    <g transform="translate(12,12)" fill="#A78BFA">
      <path d="M18 0 L20 12 L32 14 L22 22 L26 34 L18 26 L10 34 L14 22 L4 14 L16 12 Z"/>
    </g>
    <text x="30" y="85" text-anchor="middle" font-family="monospace" font-size="10" fill="#fff" opacity="0.7">RATED 4.9</text>
  </g>
  <g transform="translate(650,300)">
    <circle cx="30" cy="30" r="30" fill="none" stroke="#7C5CFF" stroke-width="2"/>
    <g transform="translate(12,14)" fill="#A78BFA">
      <path d="M18 4 C 10 4 4 10 4 18 C 4 26 18 34 18 34 C 18 34 32 26 32 18 C 32 10 26 4 18 4 Z"/>
      <circle cx="18" cy="18" r="4" fill="#0E1220"/>
    </g>
    <text x="30" y="85" text-anchor="middle" font-family="monospace" font-size="10" fill="#fff" opacity="0.7">NEARBY</text>
  </g>
  <text x="400" y="440" text-anchor="middle" font-family="Inter, sans-serif" font-size="16" fill="#A78BFA" opacity="0.6" letter-spacing="3">HOME SERVICES · ON DEMAND</text>
</svg>
