<svg xmlns="http://www.w3.org/2000/svg" viewBox="0 0 800 500" preserveAspectRatio="xMidYMid slice">
  <defs>
    <linearGradient id="n-bg" x1="0" y1="0" x2="1" y2="1">
      <stop offset="0%" stop-color="#101020"/>
      <stop offset="100%" stop-color="#1F1B3A"/>
    </linearGradient>
    <linearGradient id="n-bottle" x1="0" y1="0" x2="0" y2="1">
      <stop offset="0%" stop-color="#7C5CFF" stop-opacity="0.9"/>
      <stop offset="100%" stop-color="#A78BFA" stop-opacity="0.6"/>
    </linearGradient>
    <radialGradient id="n-glow" cx="0.5" cy="0.5" r="0.6">
      <stop offset="0%" stop-color="#A78BFA" stop-opacity="0.35"/>
      <stop offset="100%" stop-color="#A78BFA" stop-opacity="0"/>
    </radialGradient>
  </defs>
  <rect width="800" height="500" fill="url(#n-bg)"/>
  <circle cx="400" cy="250" r="220" fill="url(#n-glow)"/>
  <g transform="translate(350,90)">
    <rect x="20" y="0" width="60" height="30" rx="4" fill="#A78BFA"/>
    <path d="M10 30 L90 30 L100 60 L90 320 Q90 340 70 340 L30 340 Q10 340 10 320 L0 60 Z" fill="url(#n-bottle)" stroke="#7C5CFF" stroke-width="1.5"/>
    <rect x="12" y="140" width="76" height="90" rx="4" fill="#0E1220" opacity="0.6"/>
    <text x="50" y="175" text-anchor="middle" font-family="sans-serif" font-size="10" fill="#A78BFA" letter-spacing="2">NUTRA</text>
    <text x="50" y="195" text-anchor="middle" font-family="sans-serif" font-size="16" fill="#fff" font-weight="700">ELIXOR</text>
    <text x="50" y="215" text-anchor="middle" font-family="sans-serif" font-size="8" fill="#fff" opacity="0.5">WELLNESS +</text>
  </g>
  <g transform="translate(180,260)" fill="none" stroke="#7C5CFF" stroke-width="2" stroke-linecap="round">
    <path d="M0 40 Q 20 0 60 10 Q 40 30 20 60 Q 10 55 0 40 Z" fill="#7C5CFF" fill-opacity="0.2"/>
    <path d="M20 30 L45 15"/>
  </g>
  <g transform="translate(560,300) scale(-1,1)" fill="none" stroke="#A78BFA" stroke-width="2" stroke-linecap="round">
    <path d="M0 40 Q 20 0 60 10 Q 40 30 20 60 Q 10 55 0 40 Z" fill="#A78BFA" fill-opacity="0.2"/>
    <path d="M20 30 L45 15"/>
  </g>
  <g fill="#7C5CFF" opacity="0.5">
    <circle cx="150" cy="130" r="3"/>
    <circle cx="650" cy="180" r="3"/>
    <circle cx="120" cy="400" r="2"/>
    <circle cx="670" cy="410" r="2"/>
  </g>
</svg>
