<svg xmlns="http://www.w3.org/2000/svg" viewBox="0 0 800 500" preserveAspectRatio="xMidYMid slice">
  <defs>
    <linearGradient id="p-bg" x1="0" y1="0" x2="1" y2="1">
      <stop offset="0%" stop-color="#0D0F1C"/>
      <stop offset="100%" stop-color="#1A1732"/>
    </linearGradient>
    <linearGradient id="p-accent" x1="0" y1="0" x2="1" y2="1">
      <stop offset="0%" stop-color="#7C5CFF"/>
      <stop offset="100%" stop-color="#A78BFA"/>
    </linearGradient>
  </defs>
  <rect width="800" height="500" fill="url(#p-bg)"/>
  <g stroke="#7C5CFF" stroke-width="1" opacity="0.15">
    <circle cx="400" cy="250" r="80" fill="none"/>
    <circle cx="400" cy="250" r="140" fill="none"/>
    <circle cx="400" cy="250" r="200" fill="none"/>
    <circle cx="400" cy="250" r="260" fill="none"/>
  </g>
  <g transform="translate(120,110)">
    <rect x="0" y="0" width="560" height="280" rx="8" fill="#12121F" stroke="#7C5CFF" stroke-width="1.5"/>
    <g transform="translate(0,0)">
      <rect x="0" y="0" width="560" height="30" rx="8" fill="#1A1730"/>
      <circle cx="20" cy="15" r="5" fill="#7C5CFF"/>
      <circle cx="40" cy="15" r="5" fill="#A78BFA" opacity="0.7"/>
      <circle cx="60" cy="15" r="5" fill="#A78BFA" opacity="0.4"/>
      <rect x="200" y="8" width="200" height="14" rx="4" fill="#0E1020"/>
      <text x="300" y="18" text-anchor="middle" font-family="monospace" font-size="9" fill="#A78BFA">portfolio-anasbalochh.vercel.app</text>
    </g>
    <g transform="translate(30,60)">
      <text font-family="Inter, sans-serif" font-size="48" font-weight="800" fill="url(#p-accent)" letter-spacing="-2">Portfolio</text>
      <text y="30" font-family="Inter, sans-serif" font-size="16" fill="#fff" opacity="0.6">— 2025 edition</text>
    </g>
    <g transform="translate(30,170)">
      <rect x="0" y="0" width="150" height="80" rx="4" fill="#1A1730" stroke="#7C5CFF" stroke-width="1" opacity="0.7"/>
      <rect x="10" y="10" width="130" height="4" rx="2" fill="#A78BFA" opacity="0.5"/>
      <rect x="10" y="20" width="90" height="4" rx="2" fill="#fff" opacity="0.2"/>
      <text x="10" y="65" font-family="monospace" font-size="10" fill="#7C5CFF">Case #01</text>
    </g>
    <g transform="translate(200,170)">
      <rect x="0" y="0" width="150" height="80" rx="4" fill="#1A1730" stroke="#A78BFA" stroke-width="1" opacity="0.7"/>
      <rect x="10" y="10" width="130" height="4" rx="2" fill="#A78BFA" opacity="0.5"/>
      <rect x="10" y="20" width="70" height="4" rx="2" fill="#fff" opacity="0.2"/>
      <text x="10" y="65" font-family="monospace" font-size="10" fill="#7C5CFF">Case #02</text>
    </g>
    <g transform="translate(370,170)">
      <rect x="0" y="0" width="150" height="80" rx="4" fill="#1A1730" stroke="#7C5CFF" stroke-width="1" opacity="0.7"/>
      <rect x="10" y="10" width="130" height="4" rx="2" fill="#A78BFA" opacity="0.5"/>
      <rect x="10" y="20" width="110" height="4" rx="2" fill="#fff" opacity="0.2"/>
      <text x="10" y="65" font-family="monospace" font-size="10" fill="#7C5CFF">Case #03</text>
    </g>
  </g>
  <text x="120" y="430" font-family="monospace" font-size="12" fill="#7C5CFF" opacity="0.6">v1 · archived</text>
  <text x="680" y="430" text-anchor="end" font-family="monospace" font-size="12" fill="#A78BFA" opacity="0.6">TypeScript · Vercel</text>
</svg>
